<svg xmlns="http://www.w3.org/2000/svg" viewBox="0 0 560 300" role="img" aria-labelledby="t d"><title id="t">Tubería corrugada</title><desc id="d">Ilustración estilizada de tubería corrugada negra.</desc><rect width="560" height="300" rx="32" fill="#f0f4f6"/><g transform="translate(48 92)"><rect x="18" y="28" width="445" height="72" rx="36" fill="#394957"/><g fill="#263642"><rect x="38" y="20" width="10" height="88" rx="5"/><rect x="62" y="20" width="10" height="88" rx="5"/><rect x="86" y="20" width="10" height="88" rx="5"/><rect x="110" y="20" width="10" height="88" rx="5"/><rect x="134" y="20" width="10" height="88" rx="5"/><rect x="158" y="20" width="10" height="88" rx="5"/><rect x="182" y="20" width="10" height="88" rx="5"/><rect x="206" y="20" width="10" height="88" rx="5"/><rect x="230" y="20" width="10" height="88" rx="5"/><rect x="254" y="20" width="10" height="88" rx="5"/><rect x="278" y="20" width="10" height="88" rx="5"/><rect x="302" y="20" width="10" height="88" rx="5"/><rect x="326" y="20" width="10" height="88" rx="5"/><rect x="350" y="20" width="10" height="88" rx="5"/><rect x="374" y="20" width="10" height="88" rx="5"/><rect x="398" y="20" width="10" height="88" rx="5"/><rect x="422" y="20" width="10" height="88" rx="5"/><rect x="446" y="20" width="10" height="88" rx="5"/></g><ellipse cx="463" cy="64" rx="36" ry="42" fill="#1b2933"/><ellipse cx="463" cy="64" rx="22" ry="28" fill="#d9e4e9"/></g></svg>
